<svg xmlns="http://www.w3.org/2000/svg" xmlns:xlink="http://www.w3.org/1999/xlink" width="144.845" height="44.923" viewBox="0 0 144.845 44.923">

  <defs>

    <linearGradient id="linear-gradient" x1="0.069" y1="1.014" x2="1.126" y2="-0.228" gradientUnits="objectBoundingBox">

      <stop offset="0" stop-color="#21477c"/>

      <stop offset="0.006" stop-color="#234a7f"/>

      <stop offset="0.059" stop-color="#37669b"/>

      <stop offset="0.105" stop-color="#4277ac"/>

      <stop offset="0.14" stop-color="#477db2"/>

      <stop offset="0.505" stop-color="#66a2d3"/>

      <stop offset="0.507" stop-color="#67a3d4"/>

      <stop offset="0.615" stop-color="#578ec1"/>

      <stop offset="0.758" stop-color="#477db2"/>

      <stop offset="0.879" stop-color="#35669e"/>

      <stop offset="1" stop-color="#27558f"/>

    </linearGradient>

  </defs>

  <g id="Group_687" data-name="Group 687" transform="translate(-146.072 -581.214)">

    <g id="Group_683" data-name="Group 683" transform="translate(146.072 581.214)">

      <path id="Path_3570" data-name="Path 3570" d="M192.99,581.214l9.366,14.057-9.854,3.284.488-17.341Z" transform="translate(-169.699 -581.214)" fill="#78bde6" fill-rule="evenodd"/>

      <path id="Path_3571" data-name="Path 3571" d="M184.164,581.214l-.49,17.391-8.516-4.279,9.005-13.111Z" transform="translate(-160.874 -581.214)" fill="#2f5697" fill-rule="evenodd"/>

      <path id="Path_3572" data-name="Path 3572" d="M202.47,611.582l6.774,10.074-17.517,5.838.259-12.472,10.483-3.441Z" transform="translate(-169.306 -596.668)" fill="#69a7d8" fill-rule="evenodd"/>

      <path id="Path_3573" data-name="Path 3573" d="M167.474,609.355l8.976,4.51-.351,12.476-15.085-7.58,6.46-9.406Z" transform="translate(-153.676 -595.535)" fill="#203864" fill-rule="evenodd"/>

      <path id="Path_3574" data-name="Path 3574" d="M209.323,633.592l6.239,9.365-24.642,9.835.371-13.19,18.032-6.01Z" transform="translate(-168.895 -607.868)" fill="#487bbc" fill-rule="evenodd"/>

      <path id="Path_3575" data-name="Path 3575" d="M152.924,629.949l15.545,7.812-.371,13.177-22.025-11.013,6.852-9.976Z" transform="translate(-146.072 -606.015)" fill="#1f295d" fill-rule="evenodd"/>

    </g>

    <g id="Group_686" data-name="Group 686" transform="translate(195.798 595.576)">

      <path id="Path_3576" data-name="Path 3576" d="M259.431,622.713c0-3.115-1.323-6.024-5.907-6.024a10.308,10.308,0,0,0-5.172,1.264l.706,2.351a7.576,7.576,0,0,1,3.85-1.058c2.527,0,2.909,1.557,2.909,2.5v.235c-5.29-.03-8.493,1.793-8.493,5.408a4.248,4.248,0,0,0,4.5,4.261,5.315,5.315,0,0,0,4.231-1.911h.088l.235,1.587h3.262a22.971,22.971,0,0,1-.206-3.438ZM255.9,626.3a2.606,2.606,0,0,1-.117.794,2.928,2.928,0,0,1-2.821,1.969A1.9,1.9,0,0,1,250.908,627c0-2.175,2.439-2.733,5-2.675Zm18.1-3.468v8.493h-3.615v-8.082c0-2.057-.764-3.615-2.733-3.615a3.033,3.033,0,0,0-2.821,2.116,3.686,3.686,0,0,0-.147,1.175v8.4h-3.644V621.273c0-1.646-.029-3.027-.118-4.261H264.1l.176,2.145h.088a5.159,5.159,0,0,1,4.555-2.468C271.42,616.688,274.006,618.3,274.006,622.83Zm12.753-.117c0-3.115-1.322-6.024-5.907-6.024a10.307,10.307,0,0,0-5.172,1.264l.705,2.351a7.578,7.578,0,0,1,3.85-1.058c2.527,0,2.909,1.557,2.909,2.5v.235c-5.29-.03-8.493,1.793-8.493,5.408a4.248,4.248,0,0,0,4.5,4.261,5.316,5.316,0,0,0,4.232-1.911h.088l.235,1.587h3.262a22.958,22.958,0,0,1-.206-3.438Zm-3.526,3.585a2.591,2.591,0,0,1-.118.794,2.927,2.927,0,0,1-2.821,1.969A1.9,1.9,0,0,1,278.237,627c0-2.175,2.439-2.733,5-2.675Zm26.152,2.146h7.553v2.88H304.859v-2.086l5.378-6.877c.735-.882,1.352-1.587,2.116-2.41v-.059h-6.965v-.318l-2.644,7.2c-1.969,5.349-3.291,7.729-5,9.2a7.267,7.267,0,0,1-3.791,1.851l-.823-3.056a6.192,6.192,0,0,0,2.116-1,6.306,6.306,0,0,0,1.969-2.263,1.444,1.444,0,0,0,.235-.647,1.532,1.532,0,0,0-.206-.7l-5.23-13.135v14.31h-3.644V610.458h3.644v6.553h3.967l2.586,7.67c.294.882.588,1.969.794,2.792h.088c.235-.823.5-1.881.764-2.822l2.234-7.641h14.311v2.2l-5.261,6.73c-.705.852-1.381,1.675-2.116,2.439Zm19.895-4.79c0-3.145-1.528-6.965-6.171-6.965-4.585,0-6.994,3.732-6.994,7.7,0,4.379,2.733,7.229,7.377,7.229a13.473,13.473,0,0,0,5-.881l-.529-2.5a10.753,10.753,0,0,1-3.967.646c-2.293,0-4.32-1.117-4.408-3.7h9.581A8.941,8.941,0,0,0,329.28,623.653Zm-3.409-1h-6.289c.147-1.469,1.087-3.5,3.321-3.5C325.313,619.157,325.9,621.331,325.871,622.654Z" transform="translate(-247.323 -610.458)" fill="url(#linear-gradient)"/>

      <g id="Group_685" data-name="Group 685" transform="translate(82.854 1.014)">

        <g id="Group_684" data-name="Group 684">

          <path id="Path_3577" data-name="Path 3577" d="M416.141,616.822c0-1.544-.028-2.839-.111-4h2.977l.165,2.012h.083a4.839,4.839,0,0,1,4.272-2.315c2.343,0,4.768,1.516,4.768,5.76v7.965H424.9v-7.58c0-1.929-.717-3.39-2.563-3.39a2.845,2.845,0,0,0-2.646,1.985,3.461,3.461,0,0,0-.138,1.1v7.882h-3.417Z" transform="translate(-416.03 -612.522)" fill="#4a7eb5"/>

        </g>

      </g>

    </g>

  </g>

</svg>